<svg width="164" height="45" viewBox="0 0 164 45" fill="none" xmlns="http://www.w3.org/2000/svg">
<path d="M19.1736 10.5172C27.5967 10.5172 34.18 17.1071 34.18 27.3802C34.18 37.6533 27.5967 44.4872 19.1736 44.4872C14.0089 44.4872 10.3294 42.1131 8.31226 39.2508V43.9325H0V0H8.31226V15.8645C10.3294 12.8247 14.1863 10.5172 19.1736 10.5172ZM16.9792 17.8171C12.5238 17.8171 8.31226 21.2562 8.31226 27.4911C8.31226 33.726 12.5238 37.1651 16.9792 37.1651C21.4346 37.1651 25.6904 33.5928 25.6904 27.358C25.6904 21.1231 21.4789 17.7949 16.9792 17.7949V17.8171Z" fill="white"/>
<path d="M57.3919 10.5172C65.815 10.5172 72.3983 17.1071 72.3983 27.3802C72.3983 37.6533 65.815 44.4872 57.3919 44.4872C52.2272 44.4872 48.5476 42.1131 46.5305 39.2508V43.9325H38.2183V0H46.5305V15.8645C48.5476 12.8247 52.4045 10.5172 57.3919 10.5172ZM55.1974 17.8171C50.7421 17.8171 46.5305 21.2562 46.5305 27.4911C46.5305 33.726 50.7421 37.1651 55.1974 37.1651C59.6528 37.1651 63.9087 33.5928 63.9087 27.358C63.9087 21.1231 59.6971 17.7949 55.1974 17.7949V17.8171Z" fill="white"/>
<path d="M84.7485 44.4874H76.4363V11.5824H84.7485V16.6857C86.8321 13.2909 90.2679 11.0942 94.8341 11.0942V19.8364H92.6396C87.7188 19.8364 84.7485 21.7445 84.7485 28.0904V44.4874Z" fill="white"/>
<path d="M115.541 44.4873C106.054 44.4873 98.8723 37.8309 98.8723 27.4912C98.8723 17.1516 106.298 10.4951 115.785 10.4951C125.272 10.4951 132.698 17.085 132.698 27.4912C132.698 37.8975 125.095 44.4873 115.541 44.4873ZM115.541 37.2318C119.93 37.2318 124.142 34.0145 124.142 27.4912C124.142 20.9679 120.041 17.7506 115.652 17.7506C111.263 17.7506 107.295 20.9014 107.295 27.4912C107.295 34.0811 111.086 37.2318 115.541 37.2318Z" fill="white"/>
<path d="M151.099 44.4873C142.854 44.4873 137.09 39.6725 136.736 33.5486H145.092C145.38 36.0337 147.708 37.9418 151.033 37.9418C154.358 37.9418 156.064 36.4552 156.064 34.5471C156.064 28.6672 137.489 32.417 137.489 20.3467C137.489 14.8884 142.344 10.4951 150.479 10.4951C158.614 10.4951 163.224 14.8218 163.712 21.3673H155.754C155.51 18.8157 153.493 17.085 150.235 17.085C147.154 17.085 145.558 18.3275 145.558 20.2357C145.558 26.2265 163.778 22.4989 164 34.5471C164 40.1828 159.079 44.4652 151.077 44.4652L151.099 44.4873Z" fill="white"/>
</svg>
 