<svg width="151" height="30" viewBox="0 0 151 30" fill="none" xmlns="http://www.w3.org/2000/svg">
<path d="M15.5732 29.2659V23.6383C20.5253 23.6383 24.5452 19.6143 24.5452 14.6573C24.5452 9.70034 20.5253 5.67642 15.5732 5.67642V0.0341797C23.6276 0.0341797 30.1818 6.59492 30.1818 14.6428C30.1818 22.6906 23.6276 29.2514 15.5878 29.2514L15.5732 29.2659Z" fill="black"/>
<path d="M0.97998 0.0341797C9.04893 0.0341797 15.574 6.58034 15.574 14.6428C15.574 22.7052 9.04893 29.2659 0.97998 29.2659V0.0341797Z" fill="black"/>
<path d="M52.7603 6.94483C58.2949 6.94483 62.6207 11.2749 62.6207 18.0252C62.6207 24.7755 58.2949 29.2659 52.7603 29.2659C49.3666 29.2659 46.9489 27.7059 45.6235 25.8252V28.9014H40.1616V0.0341797H45.6235V10.4585C46.9489 8.46109 49.4832 6.94483 52.7603 6.94483ZM51.3183 11.7415C48.3908 11.7415 45.6235 14.0013 45.6235 18.0981C45.6235 22.1949 48.3908 24.4547 51.3183 24.4547C54.2459 24.4547 57.0423 22.1074 57.0423 18.0106C57.0423 13.9138 54.275 11.7269 51.3183 11.7269V11.7415Z" fill="black"/>
<path d="M79.1807 6.94483C84.7153 6.94483 89.0411 11.2749 89.0411 18.0252C89.0411 24.7755 84.7153 29.2659 79.1807 29.2659C75.787 29.2659 73.3693 27.7059 72.0439 25.8252V28.9014H66.582V0.0341797H72.0439V10.4585C73.3693 8.46109 75.9036 6.94483 79.1807 6.94483ZM77.7387 11.7415C74.8112 11.7415 72.0439 14.0013 72.0439 18.0981C72.0439 22.1949 74.8112 24.4547 77.7387 24.4547C80.6663 24.4547 83.4627 22.1074 83.4627 18.0106C83.4627 13.9138 80.6954 11.7269 77.7387 11.7269V11.7415Z" fill="black"/>
<path d="M98.4638 28.9157H93.002V7.29438H98.4638V10.6476C99.8329 8.417 102.09 6.97363 105.091 6.97363V12.7179H103.649C100.415 12.7179 98.4638 13.9718 98.4638 18.1415V28.9157Z" fill="black"/>
<path d="M118.346 29.2663C112.113 29.2663 107.394 24.8925 107.394 18.0985C107.394 11.3045 112.273 6.93066 118.507 6.93066C124.74 6.93066 129.62 11.2608 129.62 18.0985C129.62 24.9363 124.624 29.2663 118.346 29.2663ZM118.346 24.4989C121.23 24.4989 123.998 22.3849 123.998 18.0985C123.998 13.8122 121.303 11.6981 118.419 11.6981C115.535 11.6981 112.928 13.7684 112.928 18.0985C112.928 22.4286 115.419 24.4989 118.346 24.4989Z" fill="black"/>
<path d="M141.897 29.2663C136.479 29.2663 132.692 26.1026 132.459 22.0787H137.95C138.139 23.7116 139.669 24.9654 141.853 24.9654C144.038 24.9654 145.16 23.9886 145.16 22.7348C145.16 18.8712 132.954 21.3351 132.954 13.4039C132.954 9.81739 136.144 6.93066 141.489 6.93066C146.835 6.93066 149.864 9.77365 150.184 14.0746H144.956C144.795 12.3979 143.47 11.2608 141.329 11.2608C139.304 11.2608 138.256 12.0772 138.256 13.331C138.256 17.2675 150.228 14.8181 150.374 22.7348C150.374 26.4379 147.14 29.2518 141.882 29.2518L141.897 29.2663Z" fill="black"/>
</svg>
