<svg width="217" height="28" viewBox="0 0 217 28" fill="none" xmlns="http://www.w3.org/2000/svg">
<path d="M8.96635 6.32666C11.9922 6.32666 14.144 7.70863 15.2374 9.48998V6.61827H21.4735V26.9072H15.2374V24.0355C14.1059 25.8169 11.9572 27.1988 8.93138 27.1988C3.97304 27.1988 0 23.1258 0 16.7263C0 10.3268 3.96986 6.32666 8.96635 6.32666ZM10.7908 11.7436C8.4578 11.7436 6.34414 13.4901 6.34414 16.7263C6.34414 19.9625 8.4578 21.7787 10.7908 21.7787C13.1237 21.7787 15.2374 19.9974 15.2374 16.7612C15.2374 13.5249 13.1587 11.7436 10.7908 11.7436Z" fill="#3F519F"/>
<path d="M46.0809 26.9071H39.8448V24.1432C38.6052 25.8897 36.4184 27.1258 33.6818 27.1258C28.9777 27.1258 25.8057 23.8896 25.8057 18.4727V6.61816H32.0036V17.6359C32.0036 20.3998 33.5706 21.9276 35.9035 21.9276C38.2365 21.9276 39.8416 20.3998 39.8416 17.6359V6.61816H46.0777V26.9071H46.0809Z" fill="#3F519F"/>
<path d="M51.5495 11.7819H49.0703V6.61849H51.5495V1.67383H57.7856V6.61849H61.8698V11.7819H57.7856V19.9279C57.7856 21.1292 58.2973 21.6363 59.6831 21.6363H61.908V26.9074H58.7359C54.5054 26.9074 51.5527 25.1261 51.5527 19.855V11.7819H51.5495Z" fill="#3F519F"/>
<path d="M74.7016 6.32666C68.7579 6.32666 64.127 10.3268 64.127 16.7612C64.127 23.1956 68.6467 27.1957 74.6285 27.1957C80.6103 27.1957 85.2762 23.1956 85.2762 16.7612C85.2762 10.3268 80.6834 6.32666 74.7016 6.32666ZM71.6439 20.3524C70.0388 20.3524 68.6912 19.1891 68.6912 16.7612C68.6912 14.3332 70.0897 13.1699 71.6948 13.1699C73.2999 13.1699 74.6984 14.3079 74.6984 16.7612C74.6984 19.2145 73.2204 20.3524 71.6408 20.3524H71.6439Z" fill="#3F519F"/>
<path d="M110.648 0H116.885V9.34414C118.124 7.59766 120.349 6.39953 123.156 6.39953C127.787 6.39953 130.885 9.59772 130.885 15.0527V26.9072H124.688V15.8895C124.688 13.1255 123.156 11.5978 120.788 11.5978C118.42 11.5978 116.888 13.1255 116.888 15.8895V26.9072H110.652V0H110.648Z" fill="#3F519F"/>
<path d="M136.209 11.7816H133.729V6.61824H136.209V1.67358H142.445V6.61824H146.529V11.7816H142.445V19.9276C142.445 21.1289 142.956 21.6361 144.342 21.6361H146.567V26.9072H143.395C139.165 26.9072 136.212 25.1259 136.212 19.8547V11.7816H136.209Z" fill="#3F519F"/>
<path d="M159.287 27.1957C153.308 27.1957 148.785 23.1956 148.785 16.7612C148.785 10.3268 153.416 6.32666 159.36 6.32666C165.303 6.32666 169.934 10.3268 169.934 16.7612C169.934 23.1956 165.268 27.1957 159.287 27.1957ZM159.287 21.8136C161.512 21.8136 163.59 20.1781 163.59 16.7612C163.59 13.3443 161.55 11.7087 159.36 11.7087C157.17 11.7087 155.129 13.3094 155.129 16.7612C155.129 20.2129 157.027 21.8136 159.287 21.8136Z" fill="#3F519F"/>
<path d="M187.288 15.8896C187.288 13.1257 185.756 11.5979 183.388 11.5979C181.02 11.5979 179.488 13.1257 179.488 15.8896V26.9073H173.252V6.61836H179.488V9.3094C180.728 7.60096 182.914 6.39966 185.651 6.39966C190.355 6.39966 193.489 9.59784 193.489 15.0528V26.9073H187.291V15.8896H187.288Z" fill="#3F519F"/>
<path d="M206.864 27.1957C200.885 27.1957 196.582 23.1956 196.582 16.7612C196.582 10.3268 200.812 6.32666 206.864 6.32666C212.915 6.32666 217 10.2539 217 16.4347C217 17.0179 216.965 17.636 216.892 18.2541H202.783C203.002 20.9071 204.642 22.1432 206.648 22.1432C208.399 22.1432 209.381 21.2716 209.893 20.1812H216.529C215.544 24.1433 211.937 27.1988 206.867 27.1988L206.864 27.1957ZM202.818 14.796H210.621C210.621 12.5772 208.869 11.3062 206.794 11.3062C204.718 11.3062 203.183 12.5424 202.821 14.796H202.818Z" fill="#3F519F"/>
<path d="M97.9636 6.32666C93.4852 6.32666 89.7506 8.5993 88.1836 12.4758L100.624 12.5772C100.891 12.5772 101.148 12.685 101.336 12.8752L104.053 15.5852C104.451 15.9814 104.451 16.6249 104.053 17.0242L99.68 21.3857C99.2827 21.7819 98.6343 21.7819 98.237 21.3857L96.581 19.7343L94.925 21.3857C94.5277 21.7819 93.8793 21.7819 93.482 21.3857L91.6958 19.6043L89.6139 21.6805C89.331 21.9626 88.921 22.045 88.565 21.9245C90.2845 25.2622 93.7331 27.1957 97.8905 27.1957C103.869 27.1957 108.538 23.1956 108.538 16.7612C108.538 10.3268 103.945 6.32666 97.9636 6.32666Z" fill="#3F519F"/>
</svg>
