<svg width="217" height="28" viewBox="0 0 217 28" fill="none" xmlns="http://www.w3.org/2000/svg">
<path d="M8.96635 6.32715C11.9922 6.32715 14.144 7.70912 15.2374 9.49046V6.61876H21.4735V26.9077H15.2374V24.036C14.1059 25.8174 11.9572 27.1993 8.93138 27.1993C3.97304 27.1993 0 23.1263 0 16.7268C0 10.3273 3.96986 6.32715 8.96635 6.32715ZM10.7908 11.7441C8.4578 11.7441 6.34414 13.4906 6.34414 16.7268C6.34414 19.963 8.4578 21.7792 10.7908 21.7792C13.1237 21.7792 15.2374 19.9979 15.2374 16.7617C15.2374 13.5254 13.1587 11.7441 10.7908 11.7441Z" fill="white"/>
<path d="M46.0809 26.9071H39.8448V24.1432C38.6052 25.8897 36.4184 27.1258 33.6818 27.1258C28.9777 27.1258 25.8057 23.8896 25.8057 18.4727V6.61816H32.0036V17.6359C32.0036 20.3998 33.5706 21.9276 35.9035 21.9276C38.2365 21.9276 39.8416 20.3998 39.8416 17.6359V6.61816H46.0777V26.9071H46.0809Z" fill="white"/>
<path d="M51.5495 11.7819H49.0703V6.61849H51.5495V1.67383H57.7856V6.61849H61.8698V11.7819H57.7856V19.9279C57.7856 21.1292 58.2973 21.6363 59.6831 21.6363H61.908V26.9074H58.7359C54.5054 26.9074 51.5527 25.1261 51.5527 19.855V11.7819H51.5495Z" fill="white"/>
<path d="M74.7016 6.32617C68.7579 6.32617 64.127 10.3263 64.127 16.7607C64.127 23.1951 68.6467 27.1952 74.6285 27.1952C80.6103 27.1952 85.2762 23.1951 85.2762 16.7607C85.2762 10.3263 80.6834 6.32617 74.7016 6.32617ZM71.6439 20.3519C70.0388 20.3519 68.6912 19.1886 68.6912 16.7607C68.6912 14.3327 70.0897 13.1695 71.6948 13.1695C73.2999 13.1695 74.6984 14.3074 74.6984 16.7607C74.6984 19.214 73.2204 20.3519 71.6408 20.3519H71.6439Z" fill="white"/>
<path d="M110.648 0H116.885V9.34414C118.124 7.59766 120.349 6.39953 123.156 6.39953C127.787 6.39953 130.885 9.59772 130.885 15.0527V26.9072H124.688V15.8895C124.688 13.1255 123.156 11.5978 120.788 11.5978C118.42 11.5978 116.888 13.1255 116.888 15.8895V26.9072H110.652V0H110.648Z" fill="white"/>
<path d="M136.209 11.7819H133.729V6.61849H136.209V1.67383H142.445V6.61849H146.529V11.7819H142.445V19.9279C142.445 21.1292 142.956 21.6363 144.342 21.6363H146.567V26.9074H143.395C139.165 26.9074 136.212 25.1261 136.212 19.855V11.7819H136.209Z" fill="white"/>
<path d="M159.287 27.1962C153.308 27.1962 148.785 23.1961 148.785 16.7617C148.785 10.3273 153.416 6.32715 159.36 6.32715C165.303 6.32715 169.934 10.3273 169.934 16.7617C169.934 23.1961 165.268 27.1962 159.287 27.1962ZM159.287 21.8141C161.512 21.8141 163.59 20.1785 163.59 16.7617C163.59 13.3448 161.55 11.7092 159.36 11.7092C157.17 11.7092 155.129 13.3099 155.129 16.7617C155.129 20.2134 157.027 21.8141 159.287 21.8141Z" fill="white"/>
<path d="M187.288 15.8894C187.288 13.1254 185.756 11.5976 183.388 11.5976C181.02 11.5976 179.488 13.1254 179.488 15.8894V26.9071H173.252V6.61812H179.488V9.30916C180.728 7.60071 182.914 6.39941 185.651 6.39941C190.355 6.39941 193.489 9.5976 193.489 15.0526V26.9071H187.291V15.8894H187.288Z" fill="white"/>
<path d="M206.863 27.1962C200.885 27.1962 196.581 23.1961 196.581 16.7617C196.581 10.3273 200.812 6.32715 206.863 6.32715C212.915 6.32715 216.999 10.2544 216.999 16.4352C216.999 17.0184 216.964 17.6365 216.891 18.2546H202.782C203.001 20.9076 204.642 22.1437 206.647 22.1437C208.398 22.1437 209.381 21.2721 209.892 20.1817H216.529C215.544 24.1438 211.936 27.1993 206.866 27.1993L206.863 27.1962ZM202.817 14.7965H210.62C210.62 12.5777 208.869 11.3067 206.793 11.3067C204.718 11.3067 203.183 12.5428 202.82 14.7965H202.817Z" fill="white"/>
<path d="M97.9636 6.32715C93.4852 6.32715 89.7506 8.59979 88.1836 12.4763L100.624 12.5777C100.891 12.5777 101.148 12.6855 101.336 12.8757L104.053 15.5857C104.451 15.9819 104.451 16.6254 104.053 17.0247L99.68 21.3862C99.2827 21.7824 98.6343 21.7824 98.237 21.3862L96.581 19.7348L94.925 21.3862C94.5277 21.7824 93.8793 21.7824 93.482 21.3862L91.6958 19.6048L89.6139 21.681C89.331 21.9631 88.921 22.0455 88.565 21.925C90.2845 25.2627 93.7331 27.1962 97.8905 27.1962C103.869 27.1962 108.538 23.1961 108.538 16.7617C108.538 10.3273 103.945 6.32715 97.9636 6.32715Z" fill="white"/>
</svg>
