<svg width="24" height="20" viewBox="0 0 24 20" fill="none" xmlns="http://www.w3.org/2000/svg">
<path d="M3.87401 19.1418C3.02756 19.1418 2.30808 18.8455 1.71556 18.253C1.12304 17.6605 0.826782 16.941 0.826782 16.0946C0.826782 15.4343 1.0174 14.8418 1.39865 14.317C1.77989 13.7922 2.26643 13.4282 2.85827 13.2251V6.77511C2.26575 6.57196 1.77921 6.20798 1.39865 5.68318C1.01808 5.15838 0.827459 4.56586 0.826782 3.90563C0.826782 3.05918 1.12304 2.33969 1.71556 1.74717C2.30808 1.15466 3.02756 0.858398 3.87401 0.858398C4.72047 0.858398 5.43995 1.15466 6.03247 1.74717C6.62499 2.33969 6.92125 3.05918 6.92125 3.90563C6.92125 4.56586 6.73096 5.15838 6.3504 5.68318C5.96983 6.20798 5.48295 6.57196 4.88976 6.77511V8.98435H10.9842V6.77511C10.3917 6.57196 9.90516 6.20798 9.5246 5.68318C9.14403 5.15838 8.95341 4.56586 8.95273 3.90563C8.95273 3.05918 9.24899 2.33969 9.84151 1.74717C10.434 1.15466 11.1535 0.858398 12 0.858398C12.8464 0.858398 13.5659 1.15466 14.1584 1.74717C14.7509 2.33969 15.0472 3.05918 15.0472 3.90563C15.0472 4.56586 14.8569 5.15838 14.4764 5.68318C14.0958 6.20798 13.6089 6.57196 13.0157 6.77511V8.98435H18.0944C18.3822 8.98435 18.6236 8.88718 18.8187 8.69283C19.0137 8.49849 19.1109 8.25708 19.1102 7.96861V6.77511C18.5177 6.57196 18.0311 6.20798 17.6506 5.68318C17.27 5.15838 17.0794 4.56586 17.0787 3.90563C17.0787 3.05918 17.3749 2.33969 17.9675 1.74717C18.56 1.15466 19.2795 0.858398 20.1259 0.858398C20.9724 0.858398 21.6919 1.15466 22.2844 1.74717C22.8769 2.33969 23.1732 3.05918 23.1732 3.90563C23.1732 4.56586 22.9829 5.15838 22.6023 5.68318C22.2217 6.20798 21.7349 6.57196 21.1417 6.77511V7.96861C21.1417 8.81506 20.8454 9.53454 20.2529 10.1271C19.6604 10.7196 18.9409 11.0158 18.0944 11.0158H13.0157V13.2251C13.6082 13.4282 14.0951 13.7922 14.4764 14.317C14.8576 14.8418 15.0479 15.4343 15.0472 16.0946C15.0472 16.941 14.7509 17.6605 14.1584 18.253C13.5659 18.8455 12.8464 19.1418 12 19.1418C11.1535 19.1418 10.434 18.8455 9.84151 18.253C9.24899 17.6605 8.95273 16.941 8.95273 16.0946C8.95273 15.4343 9.14336 14.8418 9.5246 14.317C9.90584 13.7922 10.3924 13.4282 10.9842 13.2251V11.0158H4.88976V13.2251C5.48228 13.4282 5.96916 13.7922 6.3504 14.317C6.73164 14.8418 6.92192 15.4343 6.92125 16.0946C6.92125 16.941 6.62499 17.6605 6.03247 18.253C5.43995 18.8455 4.72047 19.1418 3.87401 19.1418Z" fill="#132572"/>
</svg>
