<svg width="32" height="16" viewBox="0 0 32 16" fill="none" xmlns="http://www.w3.org/2000/svg">
<path d="M7.73477 0.205078C3.48404 0.205078 0.172119 3.06583 0.172119 7.66752C0.172119 12.2692 3.40449 15.13 7.68249 15.13C11.9605 15.13 15.2974 12.2692 15.2974 7.66752C15.2974 3.06583 12.0128 0.205078 7.73477 0.205078ZM5.54803 10.2358C4.40011 10.2358 3.43631 9.40392 3.43631 7.66752C3.43631 5.93112 4.43648 5.09919 5.5844 5.09919C6.73233 5.09919 7.7325 5.91298 7.7325 7.66752C7.7325 9.42205 6.6755 10.2358 5.54576 10.2358H5.54803Z" fill="#3F519F"/>
<path d="M24.4375 0.205078C21.2347 0.205078 18.5638 1.8304 17.4431 4.60275L26.3401 4.67529C26.531 4.67529 26.7151 4.75236 26.8493 4.88837L28.7928 6.82652C29.0769 7.10987 29.0769 7.57004 28.7928 7.85566L25.665 10.9748C25.3808 11.2582 24.9171 11.2582 24.633 10.9748L23.4487 9.79381L22.2644 10.9748C21.9803 11.2582 21.5165 11.2582 21.2324 10.9748L19.9549 9.70087L18.466 11.1857C18.2637 11.3874 17.9705 11.4463 17.7159 11.3602C18.9456 13.7472 21.412 15.13 24.3852 15.13C28.6609 15.13 32.0001 12.2692 32.0001 7.66752C32.0001 3.06583 28.7155 0.205078 24.4375 0.205078Z" fill="#3F519F"/>
</svg>
