<svg width="36" height="34" viewBox="0 0 36 34" fill="none" xmlns="http://www.w3.org/2000/svg">
<path d="M24.6918 14.6725C24.3831 14.6725 24.0871 14.5499 23.8688 14.3317C23.6506 14.1134 23.528 13.8174 23.528 13.5088C23.528 13.2001 23.6506 12.9041 23.8688 12.6859C24.0871 12.4676 24.3831 12.345 24.6918 12.345C25.0004 12.345 25.2964 12.4676 25.5147 12.6859C25.7329 12.9041 25.8555 13.2001 25.8555 13.5088C25.8555 13.8174 25.7329 14.1134 25.5147 14.3317C25.2964 14.5499 25.0004 14.6725 24.6918 14.6725ZM17.7091 14.6725H10.7265V8.85367H17.7091M26.7516 11.4489L26.7633 11.4372L22.434 7.10801L21.2004 8.34161L23.656 10.7972C22.5621 11.1812 21.7823 12.2635 21.7823 13.5088C21.7823 13.8908 21.8576 14.2692 22.0038 14.6222C22.15 14.9751 22.3643 15.2959 22.6345 15.566C23.1801 16.1117 23.9201 16.4182 24.6918 16.4182C25.1107 16.4182 25.4948 16.3251 25.8555 16.1738V24.5646C25.8555 24.8733 25.7329 25.1693 25.5147 25.3875C25.2964 25.6058 25.0004 25.7284 24.6918 25.7284C24.3831 25.7284 24.0871 25.6058 23.8688 25.3875C23.6506 25.1693 23.528 24.8733 23.528 24.5646V19.3276C23.528 18.7103 23.2828 18.1183 22.8463 17.6818C22.4098 17.2453 21.8177 17.0001 21.2004 17.0001H20.0367V8.85367C20.0367 8.23637 19.7914 7.64435 19.3549 7.20785C18.9184 6.77135 18.3264 6.52612 17.7091 6.52612H10.7265C9.43468 6.52612 8.39893 7.56188 8.39893 8.85367V27.474H20.0367V18.7457H21.7823V24.5646C21.7823 25.3362 22.0889 26.0763 22.6345 26.6219C23.1801 27.1675 23.9201 27.474 24.6918 27.474C25.0738 27.474 25.4522 27.3988 25.8051 27.2526C26.1581 27.1064 26.4789 26.8921 26.749 26.6219C27.0192 26.3517 27.2335 26.031 27.3797 25.678C27.5259 25.325 27.6012 24.9467 27.6012 24.5646V13.5088C27.6012 12.7058 27.2753 11.9726 26.7516 11.4489Z" fill="#132572"/>
</svg>
