<svg width="185" height="87" viewBox="0 0 185 87" fill="none" xmlns="http://www.w3.org/2000/svg">
<path d="M44.5 0C19.769 0 0.5 16.6759 0.5 43.5C0.5 70.3241 19.3061 87 44.1958 87C69.0855 87 88.5 70.3241 88.5 43.5C88.5 16.6759 69.3897 0 44.5 0ZM31.7774 58.4713C25.0987 58.4713 19.4913 53.6218 19.4913 43.5C19.4913 33.3782 25.3103 28.5287 31.989 28.5287C38.6677 28.5287 44.4868 33.2725 44.4868 43.5C44.4868 53.7275 38.3371 58.4713 31.7642 58.4713H31.7774Z" fill="white"/>
<path d="M140.86 0C122.379 0 106.967 9.47433 100.5 25.6349L151.839 26.0577C152.941 26.0577 154.003 26.507 154.777 27.2998L165.992 38.5977C167.632 40.2494 167.632 42.9318 165.992 44.5967L147.943 62.779C146.304 64.4307 143.628 64.4307 141.988 62.779L135.155 55.8946L128.321 62.779C126.681 64.4307 124.005 64.4307 122.366 62.779L114.994 55.3528L106.403 64.0079C105.235 65.1839 103.543 65.5275 102.074 65.0254C109.17 78.9395 123.402 87 140.559 87C165.231 87 184.5 70.3241 184.5 43.5C184.5 16.6759 165.546 0 140.86 0Z" fill="white"/>
</svg>
