<svg width="36" height="34" viewBox="0 0 36 34" fill="none" xmlns="http://www.w3.org/2000/svg">
<path d="M18 7.49708C15.8248 7.49459 13.6944 8.11462 11.8603 9.28396C10.0262 10.4533 8.56501 12.1231 7.64934 14.0961C6.73368 16.0692 6.40177 18.263 6.69282 20.4186C6.98387 22.5742 7.88572 24.6015 9.29186 26.2611L9.4992 26.5029H26.5008L26.7082 26.2611C28.1143 24.6015 29.0161 22.5742 29.3072 20.4186C29.5982 18.263 29.2663 16.0692 28.3507 14.0961C27.435 12.1231 25.9738 10.4533 24.1397 9.28396C22.3056 8.11462 20.1752 7.49459 18 7.49708ZM23.9437 14.0489L19.8522 18.0643C20.0613 18.5064 20.1074 19.0082 19.9824 19.481C19.8574 19.9538 19.5692 20.3672 19.1689 20.6481C18.7685 20.929 18.2818 21.0594 17.7946 21.0161C17.3075 20.9729 16.8513 20.7588 16.5067 20.4118C16.1621 20.0648 15.9513 19.6071 15.9115 19.1196C15.8717 18.6322 16.0054 18.1464 16.2892 17.748C16.5729 17.3497 16.9883 17.0645 17.462 16.9428C17.9357 16.8211 18.4371 16.8707 18.8777 17.0829L22.9623 13.0675L23.9437 14.0489ZM8.04784 18.3131H10.3977V19.6954H8.0202C8.0202 19.4259 7.98564 19.1632 7.98564 18.8868C7.98564 18.6103 7.99946 18.5067 8.01329 18.3131H8.04784ZM11.4205 11.4019L13.1207 13.1021L12.1047 14.0558L10.3977 12.3626C10.704 12.013 11.0343 11.6851 11.386 11.3812L11.4205 11.4019ZM18.6911 11.3259H17.3089V8.90697H18C18.2557 8.90697 18.4838 8.90697 18.6911 8.94152V11.3259ZM28.0144 18.8937C28.0144 19.1632 28.0144 19.4397 27.9798 19.7023H25.5471V18.3201H27.9867C28.0006 18.5067 28.0144 18.7002 28.0144 18.8937Z" fill="#132572"/>
</svg>
