<svg width="60" height="60" viewBox="0 0 60 60" fill="none" xmlns="http://www.w3.org/2000/svg">
<path d="M7.32331 31.6099C6.71947 31.6517 6.14709 31.6837 5.57592 31.7334C4.62175 31.8156 3.75653 31.1071 3.55565 30.0664C3.36385 29.0735 3.88419 28.0831 4.80569 27.878C5.31151 27.7654 5.8615 27.8423 6.39153 27.8507C6.69224 27.8556 6.99174 27.8955 7.3227 27.9221C7.85273 22.1947 10.0799 17.2454 14.1434 13.1752C18.2021 9.11047 23.1375 6.87602 28.8976 6.34478C28.8619 5.78027 28.8359 5.2206 28.7893 4.66274C28.7252 3.88888 28.9333 3.23179 29.6273 2.82278C30.3703 2.38472 31.1393 2.41739 31.8588 2.87905C32.5304 3.30984 32.7899 3.95906 32.7179 4.74987C32.6701 5.27021 32.6344 5.79116 32.5909 6.34297C38.3274 6.86452 43.2779 9.09051 47.3463 13.1558C51.4164 17.223 53.6461 22.1723 54.1676 27.9209C54.7297 27.8768 55.27 27.8423 55.8085 27.789C56.58 27.7134 57.2461 27.9076 57.669 28.5901C58.1228 29.3228 58.1023 30.0961 57.6551 30.8234C57.2389 31.5004 56.5969 31.7818 55.8025 31.7194C55.2712 31.6777 54.7394 31.6486 54.1694 31.6111C53.6448 37.3476 51.414 42.2945 47.3451 46.3599C43.2821 50.4192 38.3443 52.6488 32.5939 53.1873C32.635 53.7197 32.6629 54.2491 32.7191 54.7749C32.8063 55.5942 32.4366 56.3426 31.7323 56.7286C30.9978 57.1316 30.0297 57.065 29.4252 56.5622C28.9085 56.1333 28.7385 55.5645 28.7833 54.9141C28.8226 54.3441 28.8607 53.7736 28.9001 53.1879C23.1569 52.6488 18.2221 50.4155 14.161 46.3568C10.0987 42.2976 7.86543 37.3615 7.32331 31.6093V31.6099ZM29.0822 8.67604C23.8019 9.17582 19.3021 11.2481 15.6234 15.0152C12.0857 18.6376 10.141 23.0067 9.67998 28.0813C14.9699 28.4848 20.2188 28.8848 25.4676 29.2853V30.251C20.2049 30.6443 14.956 31.0357 9.70782 31.4278C10.4224 42.0894 19.4383 50.2975 29.0858 50.7882C29.4767 45.5449 29.8681 40.3015 30.2602 35.0448H31.2271C31.6282 40.3075 32.0282 45.5564 32.4311 50.8385C38.1059 50.2915 42.8392 47.9645 46.5936 43.7352C49.7005 40.2355 51.4098 36.1188 51.8297 31.429C46.5373 31.0345 41.2951 30.6437 36.0506 30.2522V29.2829C41.3133 28.8817 46.5549 28.4824 51.8376 28.08C51.3051 22.5832 49.0943 17.9521 45.0713 14.2268C41.5136 10.9323 37.2855 9.12076 32.4299 8.67968C32.027 13.9702 31.6276 19.213 31.2277 24.4618H30.2578C29.8663 19.2082 29.4761 13.9739 29.081 8.67544L29.0822 8.67604Z" fill="#132572"/>
<path d="M33.6009 29.7798C33.5949 31.3499 32.3218 32.606 30.7396 32.6029C29.1617 32.5999 27.9032 31.3323 27.9092 29.7525C27.9153 28.16 29.1901 26.8991 30.782 26.9112C32.3479 26.9233 33.607 28.2042 33.6009 29.7798Z" fill="#132572"/>
</svg>
