<svg width="59" height="50" viewBox="0 0 59 50" fill="none" xmlns="http://www.w3.org/2000/svg">
<path d="M59 44.2667C58.8276 44.7865 58.7075 45.3308 58.4735 45.8199C57.2743 48.3208 55.2392 49.4891 52.4837 49.4891C45.3039 49.4861 38.1226 49.4891 30.9428 49.4891C22.8225 49.4891 14.7022 49.4815 6.58182 49.4953C4.82075 49.4983 3.24594 49.0445 1.94976 47.8209C0.693612 46.6326 0.0193542 45.1744 0.00703901 43.4402C-0.0052762 41.8333 0.00242081 40.2279 0.00549961 38.621C0.00703901 37.7026 0.44115 37.2625 1.36325 37.2088C2.12679 37.1644 2.91189 37.2027 3.64772 37.034C5.94759 36.5066 7.5578 34.2879 7.3623 32.037C7.1437 29.5162 5.27025 27.6425 2.79182 27.4815C2.29459 27.4493 1.79428 27.4708 1.29552 27.4416C0.44115 27.391 0.00857841 26.9326 0.00549961 26.0847C0.000881406 24.4394 -0.0052762 22.7957 0.00549961 21.1505C0.0270512 18.1329 2.4824 15.4971 5.49808 15.2181C5.85368 15.1844 6.20929 15.0694 6.54641 14.9452C19.2434 10.2256 31.9373 5.50302 44.6312 0.78195C46.774 -0.015372 48.9169 0.998147 49.6589 3.16932C50.9705 7.0118 52.2759 10.8573 53.5767 14.7044C53.686 15.0249 53.8045 15.2503 54.1924 15.3469C56.7617 15.9893 58.3288 17.6177 58.8968 20.1967C58.9122 20.2657 58.963 20.3271 58.9984 20.393V26.5907C58.6628 27.2423 58.121 27.4968 57.3974 27.4554C56.9972 27.4324 56.5923 27.4554 56.1906 27.4815C54.1539 27.6149 52.419 28.9934 51.8479 30.9223C51.2614 32.9064 51.9618 34.9886 53.5936 36.2291C54.7143 37.08 55.992 37.2702 57.339 37.2058C58.0732 37.1705 58.6505 37.3882 58.9969 38.069V44.2667H59ZM2.53474 24.9469C6.88816 25.0972 9.79147 28.5656 9.84227 32.1474C9.8669 33.9122 9.36198 35.5038 8.25053 36.8807C6.78656 38.6962 4.85769 39.6177 2.47778 39.702C2.47778 40.461 2.46546 41.1847 2.48086 41.9084C2.49779 42.672 2.43929 43.4556 2.59323 44.1931C2.95345 45.9211 4.46668 47.0174 6.36015 47.0205C10.6227 47.0266 14.8854 47.022 19.148 47.0205C19.2957 47.0205 19.4451 47.0021 19.679 46.9852C19.679 46.5268 19.6421 46.0883 19.6867 45.6559C19.7606 44.9536 20.3087 44.5273 20.9968 44.5779C21.6479 44.6255 22.1036 45.1131 22.1221 45.7969C22.1329 46.191 22.1236 46.5866 22.1236 47.0205C22.4223 47.0205 22.6486 47.0205 22.8764 47.0205C31.1522 47.0205 39.4265 47.0205 47.7023 47.0205C49.3926 47.0205 51.0813 47.0343 52.7716 47.0159C54.5865 46.9975 56.206 45.8169 56.4122 44.121C56.5877 42.6751 56.4492 41.1909 56.4492 39.7219C51.9264 39.5395 49.2094 35.9285 49.1601 32.5399C49.1355 30.8395 49.5927 29.2939 50.6287 27.9384C52.0988 26.0172 54.0785 25.0466 56.5246 24.9454C56.5246 24.1926 56.5385 23.4872 56.5215 22.7819C56.5015 21.9999 56.5616 21.1965 56.3984 20.4421C56.0151 18.6818 54.5219 17.6376 52.5622 17.6361C42.6161 17.6346 32.6716 17.6361 22.7255 17.6361C22.5393 17.6361 22.3545 17.653 22.1282 17.6637C22.1282 18.024 22.1282 18.346 22.1282 18.6665C22.1236 19.5466 21.6587 20.0833 20.9044 20.0848C20.1732 20.0848 19.6944 19.5727 19.659 18.7324C19.6436 18.3782 19.656 18.021 19.656 17.6469C15.0177 17.6469 10.4688 17.6039 5.91988 17.6683C4.19575 17.6929 2.6856 19.0805 2.55937 20.6675C2.44853 22.0705 2.53627 23.4888 2.53627 24.9439L2.53474 24.9469ZM51.0844 15.1445C51.0289 14.9559 51.0028 14.847 50.9658 14.7428C49.7759 11.2437 48.5859 7.74319 47.3929 4.24417C46.9572 2.96385 46.4631 2.73386 45.1854 3.20918C35.2054 6.92133 25.227 10.6335 15.2486 14.3456C14.6175 14.5802 13.991 14.8225 13.3613 15.0617C13.369 15.0893 13.3767 15.1169 13.386 15.1445H51.0844Z" fill="#132572"/>
<path d="M22.1249 27.1485C22.1249 27.8354 22.1341 28.5223 22.1218 29.2093C22.1095 29.9023 21.6169 30.4221 20.9565 30.465C20.3253 30.5064 19.7049 30.0127 19.6864 29.3258C19.6449 27.8768 19.6449 26.4263 19.6864 24.9773C19.7065 24.2827 20.2991 23.8135 20.9549 23.8442C21.6107 23.8749 22.111 24.3962 22.1233 25.0862C22.1356 25.7731 22.1264 26.46 22.1264 27.1469L22.1249 27.1485Z" fill="#132572"/>
<path d="M22.1253 37.523C22.1253 38.2099 22.1361 38.8968 22.1222 39.5838C22.1083 40.2707 21.5988 40.7905 20.9415 40.815C20.3057 40.838 19.7146 40.3872 19.6946 39.7264C19.6499 38.259 19.6484 36.7885 19.6884 35.3212C19.7069 34.6373 20.3365 34.1482 20.9692 34.1972C21.6327 34.2494 22.1114 34.763 22.1222 35.4622C22.133 36.1491 22.1253 36.8361 22.1237 37.523H22.1253Z" fill="#132572"/>
</svg>
