<svg width="28" height="10" viewBox="0 0 28 10" fill="none" xmlns="http://www.w3.org/2000/svg">
<path fill-rule="evenodd" clip-rule="evenodd" d="M7.44424 9.60362H5.10761L3.35542 2.7223C3.27225 2.40576 3.09567 2.12592 2.83591 1.99403C2.18767 1.66258 1.47335 1.3988 0.694092 1.26576V1.00083H4.45823C4.97773 1.00083 5.36736 1.3988 5.4323 1.86099L6.34144 6.82472L8.67693 1.00083H10.9486L7.44424 9.60362ZM12.2475 9.60362H10.0407L11.8578 1.00083H14.0646L12.2475 9.60362ZM16.9196 3.38389C16.9845 2.92055 17.3742 2.65561 17.8287 2.65561C18.5431 2.5891 19.3212 2.72213 19.9706 3.05244L20.3602 1.20022C19.7108 0.935285 18.9965 0.802246 18.3482 0.802246C16.2064 0.802246 14.6479 1.99386 14.6479 3.64767C14.6479 4.90581 15.7519 5.56641 16.5311 5.96438C17.3742 6.36121 17.6989 6.62614 17.6339 7.02296C17.6339 7.61819 16.9845 7.88312 16.3363 7.88312C15.557 7.88312 14.7778 7.68471 14.0646 7.35326L13.675 9.20663C14.4542 9.53693 15.2973 9.66997 16.0765 9.66997C18.4781 9.73535 19.9706 8.54488 19.9706 6.75803C19.9706 4.50784 16.9196 4.37594 16.9196 3.38389V3.38389ZM27.6936 9.60362L25.9414 1.00083H24.0593C23.6697 1.00083 23.2801 1.26576 23.1502 1.66258L19.9056 9.60362H22.1773L22.6307 8.34664H25.4219L25.6816 9.60362H27.6936ZM24.3841 3.31733L25.0323 6.55958H23.2152L24.3841 3.31733Z" fill="#172B85"/>
</svg>
