<svg width="36" height="34" viewBox="0 0 36 34" fill="none" xmlns="http://www.w3.org/2000/svg">
<mask id="path-1-outside-1_41_2155" maskUnits="userSpaceOnUse" x="8.5304" y="4.24707" width="19" height="25" fill="black">
<rect fill="white" x="8.5304" y="4.24707" width="19" height="25"/>
<path d="M10.6248 5.24707H12.2902L12.7184 5.38982L13.0515 5.62773L13.2418 5.91322L13.337 6.19872V8.05443H14.7169V7.53102L14.9072 7.15036L15.1451 6.91245L15.3354 6.76971L15.6209 6.67454H20.3792L20.8074 6.86487L21.0453 7.10278L21.2357 7.38828L21.2832 7.53102V8.05443H22.6631V6.19872L22.8535 5.77048L23.0438 5.53256L23.472 5.29465L23.7099 5.24707H25.3753L25.8511 5.38982L26.2318 5.72289L26.4221 6.05597L26.4697 6.29388V10.8618L26.327 11.29L26.0415 11.6231L25.5657 11.861H23.5672L23.0914 11.6231L22.8059 11.29L22.6631 10.957V9.05366H21.2832V9.57707L21.0929 10.0053L20.7122 10.3384L20.2364 10.4811L19.9509 10.5763L19.9033 12.7651L19.713 13.2409L19.3799 13.574L19.0469 13.7167L18.4759 13.7643V24.9462H22.6631V23.0429L22.901 22.5671L23.2341 22.2816L23.5672 22.1388H25.5657L26.0415 22.3767L26.327 22.7098L26.4697 23.138V27.7059L26.327 28.1342L25.9939 28.5148L25.6132 28.7052L25.3753 28.7528H23.7099L23.2817 28.61L22.9486 28.3721L22.7583 28.0866L22.6631 27.8011V25.9454H13.337V27.8011L13.1467 28.2294L12.9563 28.4673L12.5281 28.7052L12.2902 28.7528H10.6248L10.149 28.61L9.76831 28.2769L9.57798 27.9439L9.5304 27.7059V23.138L9.67314 22.7098L9.95864 22.3767L10.4345 22.1388H12.4329L12.9087 22.3767L13.1942 22.7098L13.337 23.0429V24.9462H17.5242V13.7643L16.9532 13.7167L16.5726 13.5264L16.2395 13.1457L16.0968 12.7651L16.0492 10.5763L15.7637 10.4811L15.2879 10.3384L14.9072 10.0053L14.7169 9.62465V9.05366H13.337V10.957L13.0991 11.4328L12.766 11.7183L12.4329 11.861H10.4345L9.95864 11.6231L9.67314 11.29L9.5304 10.8618V6.29388L9.67314 5.86564L10.0062 5.48498L10.3869 5.29465L10.6248 5.24707ZM10.6724 6.2463L10.5296 6.38905V10.7666L10.7675 10.9094H12.1474L12.3378 10.7666V6.34146L12.2426 6.2463H10.6724ZM23.7575 6.2463L23.6624 6.34146V10.7666L23.8527 10.9094H25.2326L25.4705 10.7666V6.38905L25.3277 6.2463H23.7575ZM15.7637 7.67377L15.6685 7.81652V9.33915L15.8113 9.4819L16.3347 9.57707L16.7629 9.86256L16.9532 10.1481L17.0484 10.4811L17.096 12.6699L17.2387 12.7651H18.7614L18.9041 12.6699L18.9517 10.4811L19.0944 10.0529L19.3324 9.7674L19.6654 9.57707L20.1888 9.4819L20.3316 9.33915V7.81652L20.2364 7.67377H15.7637ZM10.72 23.0905L10.5296 23.2332V27.6108L10.6724 27.7535H12.2426L12.3378 27.6584V23.2332L12.1474 23.0905H10.72ZM23.8527 23.0905L23.6624 23.2332V27.6584L23.7575 27.7535H25.3277L25.4705 27.6108V23.2332L25.2326 23.0905H23.8527Z"/>
</mask>
<path d="M10.6248 5.24707H12.2902L12.7184 5.38982L13.0515 5.62773L13.2418 5.91322L13.337 6.19872V8.05443H14.7169V7.53102L14.9072 7.15036L15.1451 6.91245L15.3354 6.76971L15.6209 6.67454H20.3792L20.8074 6.86487L21.0453 7.10278L21.2357 7.38828L21.2832 7.53102V8.05443H22.6631V6.19872L22.8535 5.77048L23.0438 5.53256L23.472 5.29465L23.7099 5.24707H25.3753L25.8511 5.38982L26.2318 5.72289L26.4221 6.05597L26.4697 6.29388V10.8618L26.327 11.29L26.0415 11.6231L25.5657 11.861H23.5672L23.0914 11.6231L22.8059 11.29L22.6631 10.957V9.05366H21.2832V9.57707L21.0929 10.0053L20.7122 10.3384L20.2364 10.4811L19.9509 10.5763L19.9033 12.7651L19.713 13.2409L19.3799 13.574L19.0469 13.7167L18.4759 13.7643V24.9462H22.6631V23.0429L22.901 22.5671L23.2341 22.2816L23.5672 22.1388H25.5657L26.0415 22.3767L26.327 22.7098L26.4697 23.138V27.7059L26.327 28.1342L25.9939 28.5148L25.6132 28.7052L25.3753 28.7528H23.7099L23.2817 28.61L22.9486 28.3721L22.7583 28.0866L22.6631 27.8011V25.9454H13.337V27.8011L13.1467 28.2294L12.9563 28.4673L12.5281 28.7052L12.2902 28.7528H10.6248L10.149 28.61L9.76831 28.2769L9.57798 27.9439L9.5304 27.7059V23.138L9.67314 22.7098L9.95864 22.3767L10.4345 22.1388H12.4329L12.9087 22.3767L13.1942 22.7098L13.337 23.0429V24.9462H17.5242V13.7643L16.9532 13.7167L16.5726 13.5264L16.2395 13.1457L16.0968 12.7651L16.0492 10.5763L15.7637 10.4811L15.2879 10.3384L14.9072 10.0053L14.7169 9.62465V9.05366H13.337V10.957L13.0991 11.4328L12.766 11.7183L12.4329 11.861H10.4345L9.95864 11.6231L9.67314 11.29L9.5304 10.8618V6.29388L9.67314 5.86564L10.0062 5.48498L10.3869 5.29465L10.6248 5.24707ZM10.6724 6.2463L10.5296 6.38905V10.7666L10.7675 10.9094H12.1474L12.3378 10.7666V6.34146L12.2426 6.2463H10.6724ZM23.7575 6.2463L23.6624 6.34146V10.7666L23.8527 10.9094H25.2326L25.4705 10.7666V6.38905L25.3277 6.2463H23.7575ZM15.7637 7.67377L15.6685 7.81652V9.33915L15.8113 9.4819L16.3347 9.57707L16.7629 9.86256L16.9532 10.1481L17.0484 10.4811L17.096 12.6699L17.2387 12.7651H18.7614L18.9041 12.6699L18.9517 10.4811L19.0944 10.0529L19.3324 9.7674L19.6654 9.57707L20.1888 9.4819L20.3316 9.33915V7.81652L20.2364 7.67377H15.7637ZM10.72 23.0905L10.5296 23.2332V27.6108L10.6724 27.7535H12.2426L12.3378 27.6584V23.2332L12.1474 23.0905H10.72ZM23.8527 23.0905L23.6624 23.2332V27.6584L23.7575 27.7535H25.3277L25.4705 27.6108V23.2332L25.2326 23.0905H23.8527Z" fill="#132572"/>
<path d="M10.6248 5.24707H12.2902L12.7184 5.38982L13.0515 5.62773L13.2418 5.91322L13.337 6.19872V8.05443H14.7169V7.53102L14.9072 7.15036L15.1451 6.91245L15.3354 6.76971L15.6209 6.67454H20.3792L20.8074 6.86487L21.0453 7.10278L21.2357 7.38828L21.2832 7.53102V8.05443H22.6631V6.19872L22.8535 5.77048L23.0438 5.53256L23.472 5.29465L23.7099 5.24707H25.3753L25.8511 5.38982L26.2318 5.72289L26.4221 6.05597L26.4697 6.29388V10.8618L26.327 11.29L26.0415 11.6231L25.5657 11.861H23.5672L23.0914 11.6231L22.8059 11.29L22.6631 10.957V9.05366H21.2832V9.57707L21.0929 10.0053L20.7122 10.3384L20.2364 10.4811L19.9509 10.5763L19.9033 12.7651L19.713 13.2409L19.3799 13.574L19.0469 13.7167L18.4759 13.7643V24.9462H22.6631V23.0429L22.901 22.5671L23.2341 22.2816L23.5672 22.1388H25.5657L26.0415 22.3767L26.327 22.7098L26.4697 23.138V27.7059L26.327 28.1342L25.9939 28.5148L25.6132 28.7052L25.3753 28.7528H23.7099L23.2817 28.61L22.9486 28.3721L22.7583 28.0866L22.6631 27.8011V25.9454H13.337V27.8011L13.1467 28.2294L12.9563 28.4673L12.5281 28.7052L12.2902 28.7528H10.6248L10.149 28.61L9.76831 28.2769L9.57798 27.9439L9.5304 27.7059V23.138L9.67314 22.7098L9.95864 22.3767L10.4345 22.1388H12.4329L12.9087 22.3767L13.1942 22.7098L13.337 23.0429V24.9462H17.5242V13.7643L16.9532 13.7167L16.5726 13.5264L16.2395 13.1457L16.0968 12.7651L16.0492 10.5763L15.7637 10.4811L15.2879 10.3384L14.9072 10.0053L14.7169 9.62465V9.05366H13.337V10.957L13.0991 11.4328L12.766 11.7183L12.4329 11.861H10.4345L9.95864 11.6231L9.67314 11.29L9.5304 10.8618V6.29388L9.67314 5.86564L10.0062 5.48498L10.3869 5.29465L10.6248 5.24707ZM10.6724 6.2463L10.5296 6.38905V10.7666L10.7675 10.9094H12.1474L12.3378 10.7666V6.34146L12.2426 6.2463H10.6724ZM23.7575 6.2463L23.6624 6.34146V10.7666L23.8527 10.9094H25.2326L25.4705 10.7666V6.38905L25.3277 6.2463H23.7575ZM15.7637 7.67377L15.6685 7.81652V9.33915L15.8113 9.4819L16.3347 9.57707L16.7629 9.86256L16.9532 10.1481L17.0484 10.4811L17.096 12.6699L17.2387 12.7651H18.7614L18.9041 12.6699L18.9517 10.4811L19.0944 10.0529L19.3324 9.7674L19.6654 9.57707L20.1888 9.4819L20.3316 9.33915V7.81652L20.2364 7.67377H15.7637ZM10.72 23.0905L10.5296 23.2332V27.6108L10.6724 27.7535H12.2426L12.3378 27.6584V23.2332L12.1474 23.0905H10.72ZM23.8527 23.0905L23.6624 23.2332V27.6584L23.7575 27.7535H25.3277L25.4705 27.6108V23.2332L25.2326 23.0905H23.8527Z" stroke="#132572" stroke-width="0.600965" mask="url(#path-1-outside-1_41_2155)"/>
</svg>
